<svg width="48" height="52" viewBox="0 0 48 52" fill="none" xmlns="http://www.w3.org/2000/svg">
<g clip-path="url(#clip0_160_300)">
<path d="M27.849 11.375C32.5037 11.375 36.83 13.9727 39.297 18.2488L42.8718 24.4431C45.7723 24.9005 48 27.6059 48 30.875C48 34.3561 45.474 37.198 42.2995 37.367L42 37.375L41.8107 37.3762C41.1442 40.1791 38.7953 42.25 36 42.25C33.2047 42.25 30.8558 40.1791 30.1893 37.3762H17.8107C17.1442 40.1791 14.7953 42.25 12 42.25C9.20465 42.25 6.85578 40.1791 6.18932 37.3762L6 37.375C2.68629 37.375 0 34.4649 0 30.875C0 27.6062 2.22734 24.9009 5.12756 24.4432L8.70299 18.2488C11.17 13.9727 15.4963 11.375 20.151 11.375H27.849ZM12 32.5C10.3431 32.5 9 33.9551 9 35.75C9 37.5449 10.3431 39 12 39C13.6569 39 15 37.5449 15 35.75C15 33.9551 13.6569 32.5 12 32.5ZM36 32.5C34.3431 32.5 33 33.9551 33 35.75C33 37.5449 34.3431 39 36 39C37.6569 39 39 37.5449 39 35.75C39 33.9551 37.6569 32.5 36 32.5ZM42 27.625H6C4.34315 27.625 3 29.0801 3 30.875C3 32.5883 4.22382 33.992 5.77611 34.1161L6 34.125L6.18893 34.1254C6.85487 31.3217 9.20411 29.25 12 29.25C14.7959 29.25 17.1451 31.3217 17.8111 34.1254H30.1889C30.8549 31.3217 33.2041 29.25 36 29.25C38.7959 29.25 41.1451 31.3217 41.8111 34.1254L42 34.125C43.6569 34.125 45 32.6699 45 30.875C45 29.1617 43.7762 27.758 42.2239 27.6339L42 27.625ZM22.5 14.6234L20.151 14.625C16.5307 14.625 13.1657 16.6454 11.247 19.9713L8.7045 24.375L22.5 24.3734V14.6234ZM27.849 14.625L25.5 14.6234V24.3734L39.294 24.375L36.753 19.9713C34.9053 16.7686 31.7166 14.7765 28.2502 14.6333L27.849 14.625Z" fill="black"/>
</g>
<defs>
<clipPath id="clip0_160_300">
<rect width="48" height="52" fill="white"/>
</clipPath>
</defs>
</svg>
