<svg width="47" height="33" viewBox="0 0 47 33" fill="none" xmlns="http://www.w3.org/2000/svg">
<path d="M46.8849 4.39424C46.6895 3.52193 46.2491 2.69748 45.6065 2.00435C45.476 1.85883 45.3395 1.72937 45.1902 1.59804C44.047 0.582486 42.4567 0 40.827 0H6.17279C4.52494 0 2.97514 0.567804 1.80886 1.59861C1.66125 1.72872 1.52438 1.85948 1.38889 2.00962C0.749063 2.69983 0.310549 3.52314 0.119887 4.39667C0.040207 4.7397 0 5.09515 0 5.45473V26.9613C0 27.7095 0.172027 28.4381 0.513053 29.1307C0.80818 29.7458 1.25596 30.3289 1.80849 30.8169C1.94765 30.9393 2.0859 31.0522 2.23351 31.1623C3.33819 31.9707 4.73699 32.4155 6.17279 32.4155H40.827C42.2721 32.4155 43.6695 31.969 44.7713 31.1534C44.9185 31.0481 45.055 30.9375 45.1915 30.8169C45.7256 30.3455 46.1501 29.8038 46.4552 29.2065L46.4954 29.1213C46.8301 28.4418 47 27.7156 47 26.9614V5.45473C47 5.09985 46.9613 4.74206 46.8849 4.39424ZM3.19664 3.48113C3.28394 3.36821 3.39538 3.2523 3.53758 3.12568C4.2434 2.50231 5.17945 2.15928 6.1727 2.15928H40.8269C41.8289 2.15928 42.7652 2.50288 43.4632 3.1269C43.5838 3.23454 43.6989 3.35402 43.7993 3.47342L44.0643 3.78815L25.5673 18.0332C24.997 18.475 24.2628 18.7181 23.4997 18.7181C22.7441 18.7181 22.0106 18.4755 21.4336 18.0338L2.95494 3.7922L3.19664 3.48113ZM2.45603 27.1512C2.44602 27.0926 2.44372 27.0276 2.44372 26.9613V5.90005L16.798 16.965L2.58858 27.9124L2.45603 27.1512ZM42.6763 29.822C42.1207 30.1053 41.4809 30.2555 40.827 30.2555H6.17279C5.51855 30.2555 4.879 30.1053 4.32382 29.822L3.74293 29.5245L18.4246 18.2188L20.0336 19.4555C20.9987 20.1959 22.2295 20.6041 23.4999 20.6041C24.775 20.6041 26.0078 20.1959 26.9723 19.4555L28.5807 18.2182L43.2573 29.5252L42.6763 29.822ZM44.5556 26.9613C44.5556 27.0264 44.5543 27.0908 44.545 27.1482L44.4178 27.9165L30.2023 16.9709L44.5556 5.90541V26.9613Z" fill="black"/>
</svg>
