<svg width="48" height="53" viewBox="0 0 48 53" fill="none" xmlns="http://www.w3.org/2000/svg">
<path d="M16 11.0418C14.0233 11.0435 12.9872 11.0712 12.184 11.5231C11.4314 11.9465 10.8195 12.6221 10.436 13.4532C10 14.398 10 15.6348 10 18.1083V39.3083C10 41.7819 10 43.0188 10.436 43.9635C10.8195 44.7945 11.4314 45.4702 12.184 45.8936C13.0397 46.375 14.1598 46.375 16.4 46.375H31.6C33.8402 46.375 34.9604 46.375 35.816 45.8936C36.5686 45.4702 37.1806 44.7945 37.564 43.9635C38 43.0188 38 41.7819 38 39.3083V18.1083C38 15.6348 38 14.398 37.564 13.4532C37.1806 12.6221 36.5686 11.9465 35.816 11.5231C35.0128 11.0712 33.9768 11.0435 32 11.0418M16 11.0418V15.4583H32V11.0418M16 11.0418V10.3949C16 9.39502 16.3597 8.43614 17 7.72917C17.6403 7.02219 18.5087 6.625 19.4142 6.625H28.5858C29.4912 6.625 30.3598 7.02219 31 7.72917C31.6402 8.43614 32 9.39502 32 10.3949V11.0418M24 33.125H18M30 24.2917H18" stroke="black" stroke-width="5" stroke-linecap="round" stroke-linejoin="round"/>
</svg>
