<svg width="14" height="15" viewBox="0 0 14 15" fill="none" xmlns="http://www.w3.org/2000/svg">
<path d="M12.25 6.05005C12.25 10.1334 7 13.6334 7 13.6334C7 13.6334 1.75 10.1334 1.75 6.05005C1.75 4.65766 2.30312 3.3223 3.28769 2.33774C4.27226 1.35317 5.60761 0.800049 7 0.800049C8.39239 0.800049 9.72774 1.35317 10.7123 2.33774C11.6969 3.3223 12.25 4.65766 12.25 6.05005Z" stroke="#8A93AD" stroke-width="1.6" stroke-linecap="round" stroke-linejoin="round"/>
<path d="M7 7.80005C7.9665 7.80005 8.75 7.01655 8.75 6.05005C8.75 5.08355 7.9665 4.30005 7 4.30005C6.0335 4.30005 5.25 5.08355 5.25 6.05005C5.25 7.01655 6.0335 7.80005 7 7.80005Z" stroke="#8A93AD" stroke-width="1.6" stroke-linecap="round" stroke-linejoin="round"/>
</svg>
