<svg width="58" height="54" viewBox="0 0 58 54" fill="none" xmlns="http://www.w3.org/2000/svg">
<path d="M24.36 23.76H8.11996C7.47036 23.76 6.95996 23.2848 6.95996 22.68V7.55998C6.95996 6.95518 7.47036 6.47998 8.11996 6.47998H24.36C25.0096 6.47998 25.52 6.95518 25.52 7.55998V22.68C25.52 23.2848 25.0096 23.76 24.36 23.76Z" stroke="#8A93AD" stroke-width="2.4" stroke-miterlimit="10" stroke-linecap="round" stroke-linejoin="round"/>
<path d="M49.88 23.76H33.64C32.9904 23.76 32.48 23.2848 32.48 22.68V7.55998C32.48 6.95518 32.9904 6.47998 33.64 6.47998H49.88C50.5296 6.47998 51.04 6.95518 51.04 7.55998V22.68C51.04 23.2848 50.5296 23.76 49.88 23.76Z" stroke="#8A93AD" stroke-width="2.4" stroke-miterlimit="10" stroke-linecap="round" stroke-linejoin="round"/>
<path d="M49.88 47.52H33.64C32.9904 47.52 32.48 47.0448 32.48 46.44V31.32C32.48 30.7152 32.9904 30.24 33.64 30.24H49.88C50.5296 30.24 51.04 30.7152 51.04 31.32V46.44C51.04 47.0448 50.5296 47.52 49.88 47.52Z" stroke="#8A93AD" stroke-width="2.4" stroke-miterlimit="10" stroke-linecap="round" stroke-linejoin="round"/>
<path d="M24.36 47.52H8.11996C7.47036 47.52 6.95996 47.0448 6.95996 46.44V31.32C6.95996 30.7152 7.47036 30.24 8.11996 30.24H24.36C25.0096 30.24 25.52 30.7152 25.52 31.32V46.44C25.52 47.0448 25.0096 47.52 24.36 47.52Z" stroke="#8A93AD" stroke-width="2.4" stroke-miterlimit="10" stroke-linecap="round" stroke-linejoin="round"/>
</svg>
