<svg width="47" height="46" viewBox="0 0 47 46" fill="none" xmlns="http://www.w3.org/2000/svg">
<path d="M23.5 0C10.5388 0 0 10.3146 0 23C0 35.6854 10.5388 46 23.5 46C36.4612 46 47 35.6854 47 23C47 10.3146 36.4552 0 23.5 0ZM37.6873 36.6513C37.2387 34.2805 36.1801 32.0384 34.5891 30.1652C34.4386 29.9878 34.2539 29.8413 34.0454 29.7341C33.8369 29.6269 33.6089 29.561 33.3743 29.5404C33.1397 29.5197 32.9033 29.5446 32.6786 29.6137C32.4539 29.6827 32.2454 29.7945 32.065 29.9427C31.8838 30.09 31.7341 30.2708 31.6246 30.4748C31.515 30.6789 31.4478 30.9021 31.4266 31.1317C31.4055 31.3612 31.431 31.5926 31.5015 31.8125C31.5721 32.0324 31.6863 32.2365 31.8377 32.4131C33.4527 34.3156 34.3439 36.7216 34.3439 39.1978C34.3439 39.2387 34.3558 39.2797 34.3558 39.3207C31.2336 41.3169 27.5074 42.4818 23.5 42.4818C19.4926 42.4818 15.7723 41.3169 12.6442 39.3207C12.6442 39.2797 12.6561 39.2446 12.6561 39.1978C12.6561 33.3497 17.5188 28.5846 23.5 28.5846C29.0864 28.5846 33.6321 24.1357 33.6321 18.6681C33.6321 13.2006 29.0864 8.75159 23.5 8.75159C17.9136 8.75159 13.3679 13.2006 13.3679 18.6681C13.3679 21.8351 14.8931 24.6508 17.2616 26.4655C13.1765 28.3914 10.156 32.1497 9.31267 36.6455C5.77182 33.1331 3.5887 28.3095 3.5887 23C3.5887 12.2522 12.5186 3.51234 23.5 3.51234C34.4814 3.51234 43.4113 12.2522 43.4113 23C43.4053 28.3095 41.2222 33.1331 37.6873 36.6513ZM16.9506 18.674C16.9506 15.1441 19.8874 12.2698 23.494 12.2698C27.1007 12.2698 30.0374 15.1441 30.0374 18.674C30.0374 22.2097 27.1007 25.0781 23.494 25.0781C19.8874 25.0781 16.9506 22.2039 16.9506 18.674Z" fill="black"/>
</svg>
