<svg width="57" height="53" viewBox="0 0 57 53" fill="none" xmlns="http://www.w3.org/2000/svg">
<g clip-path="url(#clip0_110_1122)">
<path d="M43.8437 37.3487L38.1417 33.7925C37.9011 33.6331 37.6192 33.5362 37.3249 33.5117C37.0307 33.4873 36.7347 33.5362 36.4675 33.6534L34.2784 34.6858C34.0038 34.8114 33.6957 34.8597 33.392 34.8248C33.0883 34.7899 32.8021 34.6733 32.5686 34.4894C28.4758 31.3404 25.7364 26.9286 24.8498 22.0583C24.7953 21.7783 24.8298 21.4896 24.9492 21.2276C25.0685 20.9656 25.2675 20.7417 25.5218 20.5833L27.515 19.2353C27.7621 19.084 27.9612 18.8741 28.0919 18.6273C28.2227 18.3805 28.2802 18.1058 28.2586 17.8314L27.7974 11.4619L27.6921 9.83033C27.673 9.59553 27.5972 9.36775 27.4703 9.164C27.2667 8.83332 26.9376 8.58528 26.5476 8.46852C25.4719 8.13561 24.3263 8.04618 23.206 8.20765C22.0857 8.36912 21.023 8.77683 20.1062 9.39691L19.6584 9.71377L19.4265 9.87907C19.3186 9.95149 19.2149 10.0293 19.116 10.1121L18.8303 10.3675C15.0592 13.7944 15.7686 22.4098 20.6281 30.9648L22.1065 33.3459C27.6376 41.525 35.3072 46.404 40.4073 45.1527L40.788 45.0503C40.9139 45.0124 41.0375 44.9681 41.1583 44.9179L41.4294 44.8157L41.9483 44.6136C42.9838 44.1849 43.8943 43.5327 44.6043 42.7112C45.3142 41.8897 45.8032 40.9225 46.0305 39.89C46.1168 39.5175 46.0503 39.1285 45.8441 38.7992C45.7178 38.5951 45.5435 38.4202 45.3344 38.2875L43.8437 37.3487Z" stroke="black" stroke-width="3.75" stroke-miterlimit="10"/>
</g>
<defs>
<clipPath id="clip0_110_1122">
<rect width="57" height="53" fill="white"/>
</clipPath>
</defs>
</svg>
