<svg width="60" height="60" viewBox="0 0 60 60" fill="none" xmlns="http://www.w3.org/2000/svg">
<path d="M46.5329 24.6C45.6948 24.5909 44.8738 24.3624 44.1514 23.9373C43.429 23.5123 42.8307 22.9055 42.4155 22.1773C42.0005 21.4492 41.7833 20.625 41.7857 19.7868C41.7881 18.9487 42.0099 18.1258 42.4289 17.4L42.7169 16.896C43.0313 16.3628 43.2319 15.7704 43.3063 15.1559C43.3807 14.5414 43.3272 13.9182 43.1491 13.3254C42.9711 12.7326 42.6723 12.183 42.2717 11.7113C41.8709 11.2395 41.377 10.8556 40.8209 10.5839C39.6545 10.0237 38.3208 9.91999 37.0817 10.293C35.8428 10.6661 34.788 11.4889 34.1249 12.6C33.697 13.3054 33.0946 13.8885 32.3758 14.2932C31.6567 14.6979 30.8458 14.9106 30.0209 14.9106C29.196 14.9106 28.3848 14.6979 27.666 14.2932C26.9472 13.8885 26.3446 13.3054 25.9169 12.6C25.2538 11.4889 24.199 10.6661 22.96 10.293C21.721 9.91999 20.3873 10.0237 19.2209 10.5839C18.6648 10.8556 18.1708 11.2395 17.7701 11.7113C17.3695 12.183 17.0707 12.7326 16.8926 13.3254C16.7145 13.9182 16.661 14.5414 16.7354 15.1559C16.8098 15.7704 17.0105 16.3628 17.3249 16.896L17.6129 17.4C18.032 18.1258 18.2537 18.9487 18.2561 19.7868C18.2584 20.625 18.0413 21.4492 17.6263 22.1773C17.2112 22.9055 16.6127 23.5123 15.8904 23.9373C15.168 24.3624 14.347 24.5909 13.5089 24.6C12.3412 24.5712 11.2008 24.955 10.2878 25.6836C9.37493 26.412 8.74786 27.439 8.51686 28.584C8.39686 29.2791 8.43156 29.9921 8.61845 30.6723C8.80531 31.3524 9.13985 31.9831 9.59813 32.5193C10.0564 33.0555 10.6272 33.4839 11.2699 33.7745C11.9127 34.0649 12.6116 34.2103 13.3169 34.2H13.6049C14.443 34.2091 15.264 34.4376 15.9864 34.8627C16.7087 35.2877 17.3072 35.8947 17.7222 36.6228C18.1373 37.3507 18.3545 38.1751 18.3521 39.0132C18.3498 39.8513 18.128 40.6743 17.7089 41.4L17.5889 41.592C16.9605 42.7044 16.7895 44.0177 17.112 45.2539C17.4345 46.4902 18.2251 47.5524 19.3169 48.216C20.4053 48.8424 21.6958 49.0174 22.9117 48.7032C24.1276 48.3893 25.172 47.6112 25.8209 46.536L25.8689 46.2C26.2968 45.4947 26.8992 44.9115 27.618 44.5068C28.3368 44.1022 29.1478 43.8893 29.9729 43.8893C30.7978 43.8893 31.609 44.1022 32.3278 44.5068C33.0466 44.9115 33.649 45.4947 34.0769 46.2L34.2449 46.536C34.8939 47.6177 35.9427 48.4003 37.1643 48.7147C38.3861 49.0291 39.6824 48.8501 40.7729 48.216C41.8481 47.5673 42.6262 46.5228 42.9401 45.307C43.2543 44.0909 43.0793 42.8004 42.4529 41.712L42.3089 41.448C41.8899 40.7223 41.6681 39.8993 41.6657 39.061C41.6633 38.2229 41.8805 37.399 42.2955 36.6708C42.7104 35.9427 43.309 35.3357 44.0314 34.9107C44.7538 34.4856 45.5748 34.2571 46.4129 34.248H46.7009C47.406 34.2583 48.1051 34.1131 48.7479 33.8225C49.3906 33.5321 49.9613 33.1032 50.4197 32.5671C50.8779 32.0309 51.2124 31.4004 51.3994 30.7203C51.5861 30.0401 51.6209 29.3271 51.5009 28.632C51.2806 27.4824 50.6611 26.4475 49.7523 25.7098C48.8434 24.972 47.7031 24.5791 46.5329 24.6Z" stroke="black" stroke-width="3.6" stroke-linecap="round" stroke-linejoin="round"/>
<path d="M30 35.496C33.3137 35.496 36 32.8097 36 29.496C36 26.1823 33.3137 23.496 30 23.496C26.6863 23.496 24 26.1823 24 29.496C24 32.8097 26.6863 35.496 30 35.496Z" stroke="black" stroke-width="3.6" stroke-linecap="round" stroke-linejoin="round"/>
</svg>
