<svg width="39" height="42" viewBox="0 0 39 42" fill="none" xmlns="http://www.w3.org/2000/svg">
<path d="M5.86217 21.1207C3.08421 20.0522 1.69523 19.5177 1.28139 18.7074C0.922764 18.0051 0.905982 17.157 1.23651 16.4389C1.61793 15.6101 2.98453 15.0121 5.71771 13.8161L31.4801 2.54296C34.1719 1.36504 35.5178 0.776086 36.3682 1.07806C37.1062 1.34017 37.685 1.96593 37.9276 2.76381C38.2069 3.68304 37.662 5.13811 36.5726 8.04824L26.1449 35.8994C25.0386 38.8542 24.4855 40.3318 23.7187 40.7441C23.0545 41.1014 22.2701 41.0832 21.6204 40.6955C20.8709 40.2481 20.3765 38.7466 19.3881 35.7433L16.3618 26.5485C16.1695 25.9643 16.0734 25.6721 15.9163 25.4283C15.7772 25.212 15.6036 25.0244 15.4036 24.874C15.178 24.7042 14.9077 24.6002 14.3673 24.3924L5.86217 21.1207Z" stroke="#7B85A2" stroke-width="2" stroke-linecap="round" stroke-linejoin="round"/>
</svg>
